. 
 
http://www.torrenting.com          :     Once & For all ;)


               www . Torrenting . Com 

(((((((((((((= Enjoy No RAR releases =))))))))))))))))))))


...................................NFO:....................................

.








































          
          
              
              
                    
                    
                    
                    

30.Minutes.Or.Less.2011.BRRip.XviD.AC3-SiC

Poster:
[img]http://img600.imageshack.us/img600/5552/mv5bmtm5njm0ody1nf5bml5j.jpg[/img]

IMDB Link: 
http://www.imdb.com/title/tt1622547/

Description:
Two fledgling criminals kidnap a pizza delivery guy, strap a bomb to his chest, and inform him that he has mere hours to rob a bank or else... 

General
Complete name                    : 30.Minutes.Or.Less.2011.BRRip.XviD.AC3-SiC.avi
Format                           : AVI
Format/Info                      : Audio Video Interleave
File size                        : 1.37 GiB
Duration                         : 1h 23mn
Overall bit rate                 : 2 356 Kbps

Video
ID                               : 0
Format                           : MPEG-4 Visual
Format profile                   : Advanced Simple@L5
Format settings, BVOP            : Yes
Format settings, QPel            : No
Format settings, GMC             : No warppoints
Format settings, Matrix          : Default (MPEG)
Muxing mode                      : Packed bitstream
Codec ID                         : XVID
Codec ID/Hint                    : XviD
Duration                         : 1h 23mn
Bit rate                         : 1 964 Kbps
Width                            : 720 pixels
Height                           : 304 pixels
Display aspect ratio             : 2.35:1
Frame rate                       : 23.976 fps
Color space                      : YUV
Chroma subsampling               : 4:2:0
Bit depth                        : 8 bits
Scan type                        : Progressive
Bits/(Pixel*Frame)               : 0.374
Stream size                      : 1.14 GiB (83%)
Writing library                  : XviD 64

Audio
ID                               : 1
Format                           : AC-3
Format/Info                      : Audio Coding 3
Mode extension                   : CM (complete main)
Codec ID                         : 2000
Duration                         : 1h 23mn
Bit rate mode                    : Constant
Bit rate                         : 384 Kbps
Channel(s)                       : 6 channels
Channel positions                : Front: L C R, Side: L R, LFE
Sampling rate                    : 48.0 KHz
Bit depth                        : 16 bits
Stream size                      : 228 MiB (16%)
Alignment                        : Aligned on interleaves
Interleave, duration             : 64 ms (1.53 video frames)
Interleave, preload duration     : 192 ms
Title                            : 30.Minutes.or.Less.2011.BluRay.720p.x264.DTS-HDC - [2] English


Screenshots:
[IMG]http://img249.imageshack.us/img249/4479/snap1a.png[/IMG]
[IMG]http://img811.imageshack.us/img811/5668/snap2g.png[/IMG]
[IMG]http://img191.imageshack.us/img191/9437/snap3h.png[/IMG]
[IMG]http://img192.imageshack.us/img192/4601/snap4y.png[/IMG]
[IMG]http://img716.imageshack.us/img716/8163/snap5n.png[/IMG]

Note: did my thing turned out nice, enjoy!

Source:  720p CHD thanks

Enjoy!

Respects to CaptainHomey, Cyanide, CM8, Rx, THC, ELEKTRI4KA, 
Killerhz, PA, YeFsTe, BoxSlots, MrRep and everyone in the struggle...